<svg xmlns="http://www.w3.org/2000/svg" width="928" height="356" viewBox="0 0 928 356"><style>
.card{fill:#ffffff;stroke:#d0d7de}
.box{fill:#f6f8fa;stroke:#d8dee4}
.h{font:600 12px -apple-system,'Segoe UI',Helvetica,Arial,sans-serif;fill:#1f2328}
.xs{font:11px -apple-system,'Segoe UI',Helvetica,Arial,sans-serif;fill:#59636e}
.lab{font:600 11px -apple-system,'Segoe UI',Helvetica,Arial,sans-serif;fill:#0969da;paint-order:stroke;stroke:#ffffff;stroke-width:3px;stroke-linejoin:round}
.estt{font:600 11px -apple-system,'Segoe UI',Helvetica,Arial,sans-serif;fill:#57606a;paint-order:stroke;stroke:#ffffff;stroke-width:3px;stroke-linejoin:round}
.rowt{font:600 11px -apple-system,'Segoe UI',Helvetica,Arial,sans-serif;fill:#8250df;paint-order:stroke;stroke:#ffffff;stroke-width:3px;stroke-linejoin:round}
.ink{fill:#1f2328}
.paper{fill:#ffffff}
.det{fill:#0969da}
.detl{stroke:#0969da;fill:none;stroke-width:1.6}
.detd{stroke:#0969da;fill:none;stroke-width:1.4;stroke-dasharray:5 3}
.pred{stroke:#bf8700;fill:none;stroke-width:1.6;stroke-dasharray:4 3}
.predr{stroke:#bf8700;fill:#ffffff;stroke-width:1.6}
.est{stroke:#6e7781;fill:none;stroke-width:1.4;stroke-dasharray:3 3}
.estx{stroke:#57606a;fill:none;stroke-width:2.4}
.row{stroke:#8250df;fill:none;stroke-width:2.2;stroke-dasharray:5 3}
.tick{stroke:#0969da;fill:none;stroke-width:3;stroke-linecap:round}
.err{stroke:#cf222e;fill:none;stroke-width:1.8}
.pt{fill:#0969da;fill-opacity:.7}
.hist{fill:#d0d7de;stroke:#8c959f;stroke-width:1}
.thr{stroke:#bf8700;stroke-width:1.6;stroke-dasharray:3 2}
.sep{stroke:#d8dee4;stroke-width:1}
.fmt{fill:#0969da;fill-opacity:.55}
.lat{stroke:#0969da;stroke-opacity:.85;stroke-width:1.4;fill:none}
.blk{stroke:#8250df;stroke-opacity:.35;stroke-width:.8;fill:none}
.arrow{stroke:#8c959f;stroke-width:1.6;fill:none}
.num{font:600 10px -apple-system,'Segoe UI',Helvetica,Arial,sans-serif;fill:#ffffff}
.bk{fill:#dafbe1;stroke:#4ac26b;stroke-width:1.2}.bkt{font:600 12px -apple-system,'Segoe UI',Helvetica,Arial,sans-serif;fill:#1f2328}
.bu{fill:#f6f8fa;stroke:#d0d7de}.but{font:600 12px -apple-system,'Segoe UI',Helvetica,Arial,sans-serif;fill:#1f2328}
.bc{fill:#ffffff;stroke:#bf8700;stroke-dasharray:4 3}.bct{font:600 12px -apple-system,'Segoe UI',Helvetica,Arial,sans-serif;fill:#7d4e00}
.bs{fill:#ffffff;stroke:#d8dee4;stroke-dasharray:2 3}.bst{font:600 12px -apple-system,'Segoe UI',Helvetica,Arial,sans-serif;fill:#8c959f}
.flow{stroke:#8c959f;stroke-width:1.4;fill:none}
.flowd{stroke:#bf8700;stroke-width:1.4;fill:none;stroke-dasharray:4 3}
</style><defs><marker id="ah" viewBox="0 0 10 10" refX="9" refY="5" markerWidth="7" markerHeight="7" orient="auto-start-reverse"><path d="M0 0L10 5L0 10z" fill="#8c959f"/></marker></defs><rect class="card" x="0.5" y="0.5" width="927" height="355" rx="12"/><rect class="box" x="24" y="20" width="260" height="260" rx="8"/><path fill="#ffffff" stroke="#d0d7de" d="M44 40L264 40L264 260L44 260Z"/><path fill="#1f2328" stroke="#1f2328" stroke-width="0.35" d="M67.16 63.16L78.74 63.16L78.74 74.74L67.16 74.74ZM78.74 63.16L90.32 63.16L90.32 74.74L78.74 74.74ZM90.32 63.16L101.89 63.16L101.89 74.74L90.32 74.74ZM101.89 63.16L113.47 63.16L113.47 74.74L101.89 74.74ZM113.47 63.16L125.05 63.16L125.05 74.74L113.47 74.74ZM125.05 63.16L136.63 63.16L136.63 74.74L125.05 74.74ZM136.63 63.16L148.21 63.16L148.21 74.74L136.63 74.74ZM159.79 63.16L171.37 63.16L171.37 74.74L159.79 74.74ZM182.95 63.16L194.53 63.16L194.53 74.74L182.95 74.74ZM206.11 63.16L217.68 63.16L217.68 74.74L206.11 74.74ZM229.26 63.16L240.84 63.16L240.84 74.74L229.26 74.74ZM67.16 74.74L78.74 74.74L78.74 86.32L67.16 86.32ZM136.63 74.74L148.21 74.74L148.21 86.32L136.63 86.32ZM171.37 74.74L182.95 74.74L182.95 86.32L171.37 86.32ZM182.95 74.74L194.53 74.74L194.53 86.32L182.95 86.32ZM194.53 74.74L206.11 74.74L206.11 86.32L194.53 86.32ZM206.11 74.74L217.68 74.74L217.68 86.32L206.11 86.32ZM67.16 86.32L78.74 86.32L78.74 97.89L67.16 97.89ZM90.32 86.32L101.89 86.32L101.89 97.89L90.32 97.89ZM101.89 86.32L113.47 86.32L113.47 97.89L101.89 97.89ZM113.47 86.32L125.05 86.32L125.05 97.89L113.47 97.89ZM136.63 86.32L148.21 86.32L148.21 97.89L136.63 97.89ZM229.26 86.32L240.84 86.32L240.84 97.89L229.26 97.89ZM67.16 97.89L78.74 97.89L78.74 109.47L67.16 109.47ZM90.32 97.89L101.89 97.89L101.89 109.47L90.32 109.47ZM101.89 97.89L113.47 97.89L113.47 109.47L101.89 109.47ZM113.47 97.89L125.05 97.89L125.05 109.47L113.47 109.47ZM136.63 97.89L148.21 97.89L148.21 109.47L136.63 109.47ZM182.95 97.89L194.53 97.89L194.53 109.47L182.95 109.47ZM206.11 97.89L217.68 97.89L217.68 109.47L206.11 109.47ZM217.68 97.89L229.26 97.89L229.26 109.47L217.68 109.47ZM229.26 97.89L240.84 97.89L240.84 109.47L229.26 109.47ZM67.16 109.47L78.74 109.47L78.74 121.05L67.16 121.05ZM90.32 109.47L101.89 109.47L101.89 121.05L90.32 121.05ZM101.89 109.47L113.47 109.47L113.47 121.05L101.89 121.05ZM113.47 109.47L125.05 109.47L125.05 121.05L113.47 121.05ZM136.63 109.47L148.21 109.47L148.21 121.05L136.63 121.05ZM171.37 109.47L182.95 109.47L182.95 121.05L171.37 121.05ZM206.11 109.47L217.68 109.47L217.68 121.05L206.11 121.05ZM217.68 109.47L229.26 109.47L229.26 121.05L217.68 121.05ZM67.16 121.05L78.74 121.05L78.74 132.63L67.16 132.63ZM136.63 121.05L148.21 121.05L148.21 132.63L136.63 132.63ZM159.79 121.05L171.37 121.05L171.37 132.63L159.79 132.63ZM171.37 121.05L182.95 121.05L182.95 132.63L171.37 132.63ZM206.11 121.05L217.68 121.05L217.68 132.63L206.11 132.63ZM217.68 121.05L229.26 121.05L229.26 132.63L217.68 132.63ZM67.16 132.63L78.74 132.63L78.74 144.21L67.16 144.21ZM78.74 132.63L90.32 132.63L90.32 144.21L78.74 144.21ZM90.32 132.63L101.89 132.63L101.89 144.21L90.32 144.21ZM101.89 132.63L113.47 132.63L113.47 144.21L101.89 144.21ZM113.47 132.63L125.05 132.63L125.05 144.21L113.47 144.21ZM125.05 132.63L136.63 132.63L136.63 144.21L125.05 144.21ZM136.63 132.63L148.21 132.63L148.21 144.21L136.63 144.21ZM159.79 132.63L171.37 132.63L171.37 144.21L159.79 144.21ZM171.37 132.63L182.95 132.63L182.95 144.21L171.37 144.21ZM182.95 132.63L194.53 132.63L194.53 144.21L182.95 144.21ZM217.68 132.63L229.26 132.63L229.26 144.21L217.68 144.21ZM171.37 144.21L182.95 144.21L182.95 155.79L171.37 155.79ZM182.95 144.21L194.53 144.21L194.53 155.79L182.95 155.79ZM206.11 144.21L217.68 144.21L217.68 155.79L206.11 155.79ZM217.68 144.21L229.26 144.21L229.26 155.79L217.68 155.79ZM229.26 144.21L240.84 144.21L240.84 155.79L229.26 155.79ZM67.16 155.79L78.74 155.79L78.74 167.37L67.16 167.37ZM113.47 155.79L125.05 155.79L125.05 167.37L113.47 167.37ZM125.05 155.79L136.63 155.79L136.63 167.37L125.05 167.37ZM159.79 155.79L171.37 155.79L171.37 167.37L159.79 167.37ZM171.37 155.79L182.95 155.79L182.95 167.37L171.37 167.37ZM182.95 155.79L194.53 155.79L194.53 167.37L182.95 167.37ZM194.53 155.79L206.11 155.79L206.11 167.37L194.53 167.37ZM217.68 155.79L229.26 155.79L229.26 167.37L217.68 167.37ZM229.26 155.79L240.84 155.79L240.84 167.37L229.26 167.37ZM113.47 167.37L125.05 167.37L125.05 178.95L113.47 178.95ZM136.63 167.37L148.21 167.37L148.21 178.95L136.63 178.95ZM148.21 167.37L159.79 167.37L159.79 178.95L148.21 178.95ZM182.95 167.37L194.53 167.37L194.53 178.95L182.95 178.95ZM194.53 167.37L206.11 167.37L206.11 178.95L194.53 178.95ZM206.11 167.37L217.68 167.37L217.68 178.95L206.11 178.95ZM217.68 167.37L229.26 167.37L229.26 178.95L217.68 178.95ZM229.26 167.37L240.84 167.37L240.84 178.95L229.26 178.95ZM67.16 178.95L78.74 178.95L78.74 190.53L67.16 190.53ZM90.32 178.95L101.89 178.95L101.89 190.53L90.32 190.53ZM101.89 178.95L113.47 178.95L113.47 190.53L101.89 190.53ZM113.47 178.95L125.05 178.95L125.05 190.53L113.47 190.53ZM159.79 178.95L171.37 178.95L171.37 190.53L159.79 190.53ZM171.37 178.95L182.95 178.95L182.95 190.53L171.37 190.53ZM194.53 178.95L206.11 178.95L206.11 190.53L194.53 190.53ZM217.68 178.95L229.26 178.95L229.26 190.53L217.68 190.53ZM229.26 178.95L240.84 178.95L240.84 190.53L229.26 190.53ZM78.74 190.53L90.32 190.53L90.32 202.11L78.74 202.11ZM125.05 190.53L136.63 190.53L136.63 202.11L125.05 202.11ZM159.79 190.53L171.37 190.53L171.37 202.11L159.79 202.11ZM182.95 190.53L194.53 190.53L194.53 202.11L182.95 202.11ZM206.11 190.53L217.68 190.53L217.68 202.11L206.11 202.11ZM217.68 190.53L229.26 190.53L229.26 202.11L217.68 202.11ZM67.16 202.11L78.74 202.11L78.74 213.68L67.16 213.68ZM78.74 202.11L90.32 202.11L90.32 213.68L78.74 213.68ZM90.32 202.11L101.89 202.11L101.89 213.68L90.32 213.68ZM136.63 202.11L148.21 202.11L148.21 213.68L136.63 213.68ZM171.37 202.11L182.95 202.11L182.95 213.68L171.37 213.68ZM182.95 202.11L194.53 202.11L194.53 213.68L182.95 213.68ZM206.11 202.11L217.68 202.11L217.68 213.68L206.11 213.68ZM229.26 202.11L240.84 202.11L240.84 213.68L229.26 213.68ZM101.89 213.68L113.47 213.68L113.47 225.26L101.89 225.26ZM125.05 213.68L136.63 213.68L136.63 225.26L125.05 225.26ZM136.63 213.68L148.21 213.68L148.21 225.26L136.63 225.26ZM217.68 213.68L229.26 213.68L229.26 225.26L217.68 225.26ZM67.16 225.26L78.74 225.26L78.74 236.84L67.16 236.84ZM101.89 225.26L113.47 225.26L113.47 236.84L101.89 236.84ZM113.47 225.26L125.05 225.26L125.05 236.84L113.47 236.84ZM148.21 225.26L159.79 225.26L159.79 236.84L148.21 236.84ZM171.37 225.26L182.95 225.26L182.95 236.84L171.37 236.84ZM182.95 225.26L194.53 225.26L194.53 236.84L182.95 236.84ZM194.53 225.26L206.11 225.26L206.11 236.84L194.53 236.84Z"/><path class="est" d="M67.16 63.16L264 63.16L264 260L67.16 260Z"/><path class="detl" d="M67.16 63.16L240.84 63.16L240.84 236.84L67.16 236.84Z"/><circle class="det" cx="107.68" cy="103.68" r="5"/><circle class="det" cx="30" cy="300" r="4"/><text class="xs" x="44" y="304" text-anchor="start">found centre</text><line class="est" x1="134" y1="300" x2="148" y2="300"/><text class="xs" x="154" y="304" text-anchor="start">M4 grid</text><line class="detl" x1="214" y1="300" x2="228" y2="300"/><text class="xs" x="234" y="304" text-anchor="start">M3 grid</text><rect class="bu" x="316" y="20" width="132" height="62" rx="8"/><text class="but" x="326" y="40" text-anchor="start">Binarization pass</text><rect class="bu" x="468" y="20" width="132" height="62" rx="8"/><text class="but" x="478" y="40" text-anchor="start">Finder candidates</text><rect class="bu" x="620" y="20" width="132" height="62" rx="8"/><text class="but" x="630" y="40" text-anchor="start">Module sizes and</text><text class="but" x="630" y="55" text-anchor="start">centre</text><rect class="bu" x="772" y="20" width="132" height="62" rx="8"/><text class="but" x="782" y="40" text-anchor="start">Sizes M4 to M1</text><rect class="bs" x="316" y="112" width="132" height="62" rx="8"/><text class="bst" x="326" y="132" text-anchor="start">Coverage re-read</text><rect class="bc" x="468" y="112" width="132" height="62" rx="8"/><text class="bct" x="478" y="132" text-anchor="start">Timing frame</text><rect class="bs" x="620" y="112" width="132" height="62" rx="8"/><text class="bst" x="630" y="132" text-anchor="start">Low density</text><rect class="bc" x="772" y="112" width="132" height="62" rx="8"/><text class="bct" x="782" y="132" text-anchor="start">Arbitrary</text><text class="bct" x="782" y="147" text-anchor="start">orientation</text><rect class="bc" x="316" y="204" width="132" height="62" rx="8"/><text class="bct" x="326" y="224" text-anchor="start">Scale search</text><rect class="bc" x="468" y="204" width="132" height="62" rx="8"/><text class="bct" x="478" y="224" text-anchor="start">Perspective search</text><path class="flow" marker-end="url(#ah)" d="M450 51H464"/><path class="flow" marker-end="url(#ah)" d="M602 51H616"/><path class="flow" marker-end="url(#ah)" d="M754 51H768"/><path class="flowd" marker-end="url(#ah)" d="M838 84V97H382V108"/><path class="flowd" marker-end="url(#ah)" d="M450 143H464"/><path class="flowd" marker-end="url(#ah)" d="M602 143H616"/><path class="flowd" marker-end="url(#ah)" d="M754 143H768"/><path class="flowd" marker-end="url(#ah)" d="M838 176V189H382V200"/><path class="flowd" marker-end="url(#ah)" d="M450 235H464"/><rect class="bu" x="316" y="280" width="588" height="30" rx="8"/><text class="but" x="326" y="300" text-anchor="start">Matrix decode</text><rect class="bk" x="316" y="325" width="18" height="14" rx="4"/><text class="xs" x="342" y="336" text-anchor="start">key</text><rect class="bu" x="382" y="325" width="18" height="14" rx="4"/><text class="xs" x="408" y="336" text-anchor="start">runs</text><rect class="bc" x="454" y="325" width="18" height="14" rx="4"/><text class="xs" x="480" y="336" text-anchor="start">only if needed</text><rect class="bs" x="586" y="325" width="18" height="14" rx="4"/><text class="xs" x="612" y="336" text-anchor="start">skipped</text></svg>